<svg version="1.1" xmlns="http://www.w3.org/2000/svg" xmlns:xlink="http://www.w3.org/1999/xlink" width="62.60295" height="64.5" viewBox="0,0,62.60295,64.5"><defs><radialGradient cx="319.875" cy="179.875" r="32.25" gradientUnits="userSpaceOnUse" id="color-1"><stop offset="0" stop-color="#000000"/><stop offset="1" stop-color="#000000" stop-opacity="0"/></radialGradient><radialGradient cx="320" cy="180" r="31.09091" gradientUnits="userSpaceOnUse" id="color-2"><stop offset="0" stop-color="#000000"/><stop offset="1" stop-color="#000000" stop-opacity="0"/></radialGradient></defs><g transform="translate(-288.57353,-147.625)"><g data-paper-data="{&quot;isPaintingLayer&quot;:true}" fill-rule="nonzero" stroke-linecap="butt" stroke-linejoin="miter" stroke-miterlimit="10" stroke-dasharray="" stroke-dashoffset="0" style="mix-blend-mode: normal"><path d="M295.31863,212.125c-3.72521,0 -6.7451,-3.01988 -6.7451,-6.7451v-51.0098c0,-3.72521 3.01988,-6.7451 6.7451,-6.7451h49.11275c3.72521,0 6.7451,3.01988 6.7451,6.7451v51.0098c0,3.72521 -3.01988,6.7451 -6.7451,6.7451z" fill="url(#color-1)" stroke="none" stroke-width="0"/><path d="M296.3262,211.09091c-3.59133,0 -6.50267,-2.91135 -6.50267,-6.50267v-49.17647c0,-3.59133 2.91135,-6.50267 6.50267,-6.50267h47.34759c3.59133,0 6.50267,2.91135 6.50267,6.50267v49.17647c0,3.59133 -2.91135,6.50267 -6.50267,6.50267z" fill="url(#color-2)" stroke="none" stroke-width="0"/><path d="M308.07271,195.375c-1.79041,0 -3.24183,-1.45142 -3.24183,-3.24183v-24.51634c0,-1.79041 1.45142,-3.24183 3.24183,-3.24183h23.60458c1.79041,0 3.24183,1.45142 3.24183,3.24183v24.51634c0,1.79041 -1.45142,3.24183 -3.24183,3.24183z" fill="#000000" stroke="none" stroke-width="0"/><g fill="#ffffff" stroke="#c7c7c7" stroke-width="0.5"><path d="M320.4599,173.26857c0.15299,0.11126 0.98746,0.70467 1.77326,1.25867c0.71858,0.50764 0.72785,0.50532 0.74871,-0.26425c0.00695,-0.27352 0.0255,-0.52387 0.04172,-0.57486c0.03245,-0.10431 0.19471,-0.30829 0.29902,-0.38015c0.16921,-0.11126 0.34306,-0.14603 0.76262,-0.14603c0.40101,0 0.47982,0.01391 0.67453,0.11358c0.11126,0.05795 0.26425,0.22021 0.33379,0.35002l0.05331,0.10431l0.01159,1.22853c0.01391,1.3537 0.00695,1.2888 0.16921,1.59477c0.11358,0.21557 0.22021,0.31525 0.68149,0.64208c1.61564,1.14509 1.52524,1.07786 1.62723,1.23085l0.09504,0.1414v0.24339c0,0.27816 0.00464,0.26889 -0.25034,0.62122c-0.18544,0.2573 -0.25961,0.32684 -0.42187,0.40333c-0.09967,0.04636 -0.16458,0.06027 -0.28975,0.06027h-0.16226l-0.21557,-0.15067c-0.11822,-0.08345 -0.28511,-0.20166 -0.37088,-0.26193c-0.38247,-0.27352 -0.50069,-0.35697 -0.58181,-0.41028c-0.04636,-0.03245 -0.22484,-0.15762 -0.39638,-0.28048c-0.17153,-0.12285 -0.69308,-0.49141 -1.15899,-0.82057c-0.46592,-0.32915 -1.09177,-0.77189 -1.39079,-0.98514c-0.29902,-0.21325 -0.62354,-0.44042 -0.71858,-0.50764c-0.09504,-0.0649 -0.24571,-0.17153 -0.33611,-0.23643c-0.51459,-0.36624 -1.17986,-0.83216 -1.19376,-0.83216c-0.00695,0 -0.22948,0.1553 -0.49837,0.34538c-0.46128,0.32915 -0.62354,0.44274 -0.91329,0.6444c-0.06722,0.04868 -0.19007,0.13444 -0.26889,0.19239c-0.07881,0.05795 -0.20167,0.14372 -0.26889,0.19239c-0.06954,0.04868 -0.2318,0.16226 -0.36392,0.25498c-0.12981,0.09272 -0.3477,0.24571 -0.48446,0.34074c-0.13444,0.09504 -0.56559,0.40101 -0.95501,0.67685c-1.27489,0.90402 -1.88221,1.33284 -2.24845,1.58782c-0.06954,0.04868 -0.17153,0.12285 -0.22948,0.16458c-0.13213,0.09967 -0.29438,0.12054 -0.47287,0.0649c-0.2318,-0.07649 -0.34538,-0.18312 -0.6444,-0.60963l-0.12749,-0.1808l0.00232,-0.26657v-0.26657l0.10199,-0.1414c0.05563,-0.07649 0.15299,-0.17617 0.21325,-0.22021c0.06259,-0.04404 0.15762,-0.11126 0.21094,-0.15067c0.05331,-0.03941 0.19703,-0.1414 0.31756,-0.22484c0.43578,-0.30597 0.53545,-0.37551 0.61427,-0.43346c0.04172,-0.03245 0.2063,-0.14603 0.36161,-0.25498c0.15531,-0.10895 0.33379,-0.23412 0.39638,-0.27816c0.14372,-0.10431 0.29902,-0.21557 1.00369,-0.71162c0.78812,-0.55632 2.61237,-1.84744 2.77463,-1.96333c0.07186,-0.05331 0.25961,-0.18312 0.41492,-0.29207c0.15531,-0.10895 0.3477,-0.24339 0.42651,-0.30134c0.07881,-0.05795 0.20398,-0.14603 0.27816,-0.19703c0.07186,-0.051 0.16921,-0.12054 0.21325,-0.15762c0.11822,-0.0904 0.19239,-0.08113 0.36161,0.04404z"/><path d="M320.77746,176.63892c0.08345,0.05795 0.38479,0.27352 0.67222,0.47519c0.28743,0.20398 0.75103,0.53082 1.0315,0.73248c0.28048,0.19935 0.58877,0.41492 0.68381,0.48214c0.09504,0.0649 0.25266,0.17617 0.3477,0.24339c0.09504,0.06954 0.2573,0.18544 0.35929,0.2573c0.22484,0.15762 0.52155,0.36624 0.75103,0.5285c0.09272,0.06722 0.2318,0.16226 0.30597,0.21326c0.07418,0.051 0.15994,0.1159 0.19239,0.14371l0.06027,0.05331v2.94848v2.9508l-0.05563,0.1808c-0.06722,0.21789 -0.20167,0.43115 -0.38015,0.60036c-0.15067,0.14372 -0.28743,0.22948 -0.51923,0.3222l-0.16226,0.06722h-1.25867c-1.11495,0 -1.2633,-0.00464 -1.29575,-0.03709c-0.03245,-0.03245 -0.03709,-0.21789 -0.03709,-1.69213v-1.65504h-1.22853h-1.22853v1.65504c0,1.47424 -0.00464,1.65968 -0.03709,1.69213c-0.03245,0.03245 -0.18312,0.03709 -1.30734,0.03709c-0.70467,0 -1.27721,-0.00927 -1.28416,-0.02086c-0.00695,-0.01159 -0.05795,-0.03013 -0.11126,-0.04404c-0.1159,-0.03013 -0.35465,-0.16689 -0.48446,-0.27816c-0.22021,-0.18776 -0.4126,-0.52387 -0.45896,-0.79507c-0.01854,-0.10663 -0.0255,-1.0315 -0.0255,-3.0412v-2.88821l0.15067,-0.11126c0.08113,-0.06027 0.22253,-0.16458 0.31293,-0.22716c0.09272,-0.0649 0.23875,-0.16921 0.32452,-0.2318c0.08808,-0.0649 0.25266,-0.17848 0.36392,-0.2573c0.11358,-0.07649 0.65831,-0.46128 1.21231,-0.85534c0.554,-0.39406 1.07555,-0.76262 1.15899,-0.82057c0.08345,-0.05795 0.28743,-0.20166 0.45201,-0.31988c0.16689,-0.1159 0.33379,-0.23412 0.37088,-0.26193c0.03941,-0.02782 0.16921,-0.12054 0.28975,-0.20862c0.31525,-0.22716 0.28511,-0.2318 0.83447,0.16226z"/></g></g></g></svg>