<svg version="1.1" xmlns="http://www.w3.org/2000/svg" xmlns:xlink="http://www.w3.org/1999/xlink" width="787" height="494.56791" viewBox="0,0,787,494.56791"><defs><linearGradient x1="318" y1="-49.5" x2="318" y2="-0.5" gradientUnits="userSpaceOnUse" id="color-1"><stop offset="0" stop-color="#000000" stop-opacity="0"/><stop offset="1" stop-color="#000000"/></linearGradient><linearGradient x1="-75.5" y1="181" x2="80.5" y2="181" gradientUnits="userSpaceOnUse" id="color-2"><stop offset="0" stop-color="#000000" stop-opacity="0"/><stop offset="1" stop-color="#000000"/></linearGradient><linearGradient x1="711.5" y1="181.5" x2="555.5" y2="181.5" gradientUnits="userSpaceOnUse" id="color-3"><stop offset="0" stop-color="#000000" stop-opacity="0"/><stop offset="1" stop-color="#000000"/></linearGradient><radialGradient cx="74.12446" cy="-0.14402" r="139.03207" gradientUnits="userSpaceOnUse" id="color-4"><stop offset="0" stop-color="#000000" stop-opacity="0.79216"/><stop offset="1" stop-color="#000000" stop-opacity="0"/></radialGradient><radialGradient cx="-7.80539" cy="441.87445" r="51.7149" gradientUnits="userSpaceOnUse" id="color-5"><stop offset="0" stop-color="#000000" stop-opacity="0.79216"/><stop offset="1" stop-color="#000000" stop-opacity="0"/></radialGradient></defs><g transform="translate(75.5,51.85892)"><g data-paper-data="{&quot;isPaintingLayer&quot;:true}" fill-rule="nonzero" stroke="none" stroke-width="0" stroke-linecap="butt" stroke-linejoin="miter" stroke-miterlimit="10" stroke-dasharray="" stroke-dashoffset="0" style="mix-blend-mode: normal"><path d="M80.5,360v-365h475v365z" fill="#000000"/><path d="M79.50601,-0.5v-49h476.98799v49z" fill="url(#color-1)"/><path d="M80.5,362.5h-156v-363h156z" fill="url(#color-2)"/><path d="M555.5,0.5h156v362h-156z" fill="url(#color-3)"/><path d="M-64.90761,-0.14402c0,-28.56135 62.24678,-51.7149 139.03207,-51.7149c4.55788,0 5.14295,0.24103 5.14295,0.24103l0.67795,51.26992l-145.83808,0.19946c0,0 0.98511,1.88481 0.98511,0.00449z" fill="url(#color-4)"/><path d="M-59.52029,441.87445c0,-28.56135 23.15355,-51.71489 51.7149,-51.71489c1.69537,0 1.05444,0.24103 1.05444,0.24103l1.11072,51.26992l-54.24649,0.19946c0,0 0.36642,1.88481 0.36642,0.00448z" fill="url(#color-5)"/></g></g></svg>